# xmcd
#
# Track frame offsets:
#	150
#	8600
#	15732
#	30675
#	46677
#	52937
#	68065
#	91040
#	107542
#	123842
#	142542
#	159297
#	172597
#	184952
#	200165
#	216862
#	233292
#	249357
#	273512
#
# Disc length: 4131 seconds
#
# Revision: 1
# Processed by: cddbd v1.5.1PL0 Copyright (c) Steve Scherf et al.
# Submitted via: CDex 1.50Beta5
#
DISCID=dd102113
DTITLE=大阪府立淀川工業高等学校グリークラブ - ファイト!
DYEAR=1900
DGENRE=Other
TTITLE0=茶摘み(「唱歌の四季」より)
TTITLE1=雪(「唱歌の四季」より)
TTITLE2=夕焼小焼(「唱歌の四季」より)
TTITLE3=つばき・やぶかんぞう・あさがお(男声合唱とピアノのための「花に寄せて」より)
TTITLE4=みょうが(男声合唱とピアノのための「花に寄せて」より)
TTITLE5=ばら・きく・なずな -母に捧ぐ- (男声合唱とピアノのための「花に寄せて」より)
TTITLE6=怪物たちの雑踏のなか
TTITLE7=時代
TTITLE8=秋桜
TTITLE9=あんた
TTITLE10=ヘッドライト・テールライト
TTITLE11=うんこふんじゃった!
TTITLE12=ヨーデル食べ放題
TTITLE13=アカペラな夜
TTITLE14=
TTITLE15=機織る星(「遙かなる歩み」より)
TTITLE16=「虎」(男声合唱組曲<この地上>より)
TTITLE17=サライ
TTITLE18=ファイト!
EXTD=
EXTT0=
EXTT1=
EXTT2=
EXTT3=
EXTT4=
EXTT5=
EXTT6=
EXTT7=
EXTT8=
EXTT9=
EXTT10=
EXTT11=
EXTT12=
EXTT13=
EXTT14=
EXTT15=
EXTT16=
EXTT17=
EXTT18=
PLAYORDER=
